<svg width="693" height="693" viewBox="0 0 693 693" fill="none" xmlns="http://www.w3.org/2000/svg">
<ellipse cx="337.932" cy="359.138" rx="235.437" ry="234.694" transform="rotate(33.4249 337.932 359.138)" fill="#8EAAF1"/>
<path d="M311.967 220.388C321.639 209.774 320.877 193.33 310.263 183.657C299.65 173.985 283.206 174.748 273.533 185.361L311.967 220.388ZM116.783 357.361L99.27 376.578L137.704 411.604L155.217 392.388L116.783 357.361ZM273.533 185.361L116.783 357.361L155.217 392.388L311.967 220.388L273.533 185.361Z" fill="#787878"/>
<path d="M308.667 217.328C316.65 208.537 315.994 194.94 307.204 186.958C298.413 178.975 284.816 179.63 276.833 188.421L308.667 217.328ZM115.083 366.546L100.63 382.463L132.463 411.37L146.917 395.454L115.083 366.546ZM276.833 188.421L115.083 366.546L146.917 395.454L308.667 217.328L276.833 188.421Z" fill="#DEFFF4"/>
<line x1="565.976" y1="306.649" x2="401.649" y2="500.024" stroke="#787878" stroke-width="52" stroke-linecap="round"/>
<line x1="567.465" y1="304.306" x2="403.306" y2="497.535" stroke="#DEFFF4" stroke-width="43" stroke-linecap="round"/>
<circle cx="346.363" cy="346.363" r="234.5" transform="rotate(33.4249 346.363 346.363)" stroke="#DEFFF4" stroke-width="31"/>
<circle cx="346.363" cy="346.363" r="246.5" transform="rotate(33.4249 346.363 346.363)" stroke="#787878" stroke-width="7"/>
<path d="M267.553 402.916L269.791 400.817L269.791 400.817L267.553 402.916ZM269.9 299.323L272.044 301.32L272.044 301.32L269.9 299.323ZM310.809 298.378L308.571 300.476L308.571 300.476L310.809 298.378ZM308.462 401.971L306.318 399.973L306.318 399.973L308.462 401.971ZM287.904 407.032C279.575 407.225 273.703 405.014 269.791 400.817L265.316 405.015C270.631 410.716 278.281 413.25 287.768 413.031L287.904 407.032ZM269.791 400.817C265.833 396.572 263.747 390.303 263.945 381.566L257.947 381.705C257.726 391.443 260.045 399.361 265.316 405.015L269.791 400.817ZM263.945 381.566L265.32 320.862L259.322 321L257.947 381.705L263.945 381.566ZM265.32 320.862C265.518 312.125 267.89 305.752 272.044 301.32L267.755 297.325C262.222 303.228 259.542 311.262 259.322 321L265.32 320.862ZM272.044 301.32C276.152 296.937 282.13 294.454 290.458 294.261L290.594 288.263C281.107 288.482 273.334 291.372 267.755 297.325L272.044 301.32ZM290.458 294.261C298.787 294.069 304.658 296.279 308.571 300.476L313.046 296.279C307.731 290.577 300.081 288.044 290.594 288.263L290.458 294.261ZM308.571 300.476C312.529 304.721 314.615 310.991 314.417 319.728L320.415 319.589C320.636 309.851 318.317 301.933 313.046 296.279L308.571 300.476ZM314.417 319.728L313.042 380.432L319.04 380.293L320.415 319.589L314.417 319.728ZM313.042 380.432C312.844 389.169 310.472 395.541 306.318 399.973L310.607 403.969C316.14 398.065 318.82 390.032 319.04 380.293L313.042 380.432ZM306.318 399.973C302.21 404.356 296.232 406.84 287.904 407.032L287.768 413.031C297.255 412.812 305.027 409.922 310.607 403.969L306.318 399.973ZM288.142 396.535C291.905 396.448 295.245 395.205 297.595 392.384C299.851 389.675 300.775 385.999 300.869 381.867L294.871 382.006C294.792 385.462 294.021 387.513 293.057 388.671C292.186 389.716 290.782 390.479 288.277 390.537L288.142 396.535ZM300.869 381.867L302.296 318.853L296.298 318.992L294.871 382.006L300.869 381.867ZM302.296 318.853C302.39 314.722 301.631 311.084 299.495 308.477C297.271 305.762 293.984 304.672 290.22 304.759L290.085 310.757C292.589 310.699 293.96 311.398 294.784 312.404C295.697 313.518 296.376 315.536 296.298 318.992L302.296 318.853ZM290.22 304.759C286.457 304.845 283.116 306.089 280.767 308.909C278.511 311.618 277.587 315.295 277.493 319.426L283.491 319.288C283.57 315.831 284.341 313.78 285.305 312.623C286.176 311.577 287.58 310.815 290.085 310.757L290.22 304.759ZM277.493 319.426L276.066 382.44L282.064 382.302L283.491 319.288L277.493 319.426ZM276.066 382.44C275.972 386.572 276.731 390.209 278.867 392.817C281.09 395.532 284.378 396.622 288.142 396.535L288.277 390.537C285.773 390.594 284.402 389.896 283.578 388.89C282.665 387.776 281.986 385.758 282.064 382.302L276.066 382.44ZM358.35 291.344L358.418 288.345L355.419 288.414L355.351 291.413L358.35 291.344ZM381.114 290.818L384.037 290.009L383.512 287.765L381.182 287.819L381.114 290.818ZM397.199 359.528L394.276 360.337L394.801 362.581L397.131 362.527L397.199 359.528ZM397.529 359.52L397.461 362.519L400.46 362.45L400.528 359.451L397.529 359.52ZM399.094 290.403L399.162 287.404L396.163 287.473L396.095 290.472L399.094 290.403ZM415.26 290.03L418.259 289.96L418.327 286.961L415.328 287.03L415.26 290.03ZM412.644 405.5L412.576 408.499L415.576 408.43L415.644 405.431L412.644 405.5ZM394.004 405.93L391.083 406.748L391.614 408.983L393.936 408.93L394.004 405.93ZM374.14 322.14L377.06 321.323L376.53 319.087L374.207 319.141L374.14 322.14ZM373.81 322.148L373.878 319.148L370.878 319.218L370.81 322.217L373.81 322.148ZM371.9 406.441L371.832 409.44L374.832 409.371L374.899 406.372L371.9 406.441ZM355.735 406.814L352.735 406.884L352.667 409.883L355.667 409.814L355.735 406.814ZM358.282 294.343L381.046 293.817L381.182 287.819L358.418 288.345L358.282 294.343ZM378.191 291.627L394.276 360.337L400.121 358.719L384.037 290.009L378.191 291.627ZM397.131 362.527L397.461 362.519L397.597 356.521L397.267 356.529L397.131 362.527ZM400.528 359.451L402.093 290.334L396.095 290.472L394.529 359.589L400.528 359.451ZM399.026 293.402L415.192 293.029L415.328 287.03L399.162 287.404L399.026 293.402ZM412.261 290.099L409.645 405.569L415.644 405.431L418.259 289.96L412.261 290.099ZM412.712 402.501L394.072 402.931L393.936 408.93L412.576 408.499L412.712 402.501ZM396.925 405.113L377.06 321.323L371.219 322.957L391.083 406.748L396.925 405.113ZM374.207 319.141L373.878 319.148L373.742 325.147L374.072 325.139L374.207 319.141ZM370.81 322.217L368.901 406.51L374.899 406.372L376.809 322.078L370.81 322.217ZM371.968 403.442L355.803 403.815L355.667 409.814L371.832 409.44L371.968 403.442ZM358.734 406.745L361.349 291.275L355.351 291.413L352.735 406.884L358.734 406.745Z" fill="#787878"/>
<path d="M281.155 408.719C272.355 408.922 265.676 406.579 261.118 401.69C256.56 396.8 254.384 389.793 254.591 380.667L255.949 320.699C256.156 311.573 258.651 304.457 263.436 299.352C268.221 294.247 275.013 291.593 283.812 291.389C292.612 291.186 299.291 293.529 303.849 298.419C308.407 303.308 310.583 310.316 310.377 319.441L309.018 379.41C308.811 388.536 306.316 395.651 301.531 400.756C296.747 405.862 289.954 408.516 281.155 408.719ZM281.524 392.423C287.716 392.28 290.897 388.461 291.067 380.965L292.477 318.715C292.647 311.219 289.636 307.542 283.443 307.685C277.251 307.828 274.07 311.648 273.9 319.144L272.49 381.394C272.32 388.89 275.332 392.566 281.524 392.423ZM350.814 291.47L373.302 290.951L389.192 358.828L389.518 358.82L391.065 290.541L407.034 290.172L404.45 404.243L386.036 404.668L366.412 321.893L366.086 321.901L364.2 405.172L348.23 405.541L350.814 291.47Z" fill="white"/>
</svg>
